<svg width="140" height="40" viewBox="0 0 140 40" xmlns="http://www.w3.org/2000/svg" xmlns:xlink="http://www.w3.org/1999/xlink">
    <defs>
        <path id="eh1upwtd5a" d="M0 0h17.978v15.238H0z"/>
        <path id="u2kes19vjc" d="M0 0h7.79v3.281H0z"/>
        <path id="qwr0qb94qe" d="M0 0h18.703v27.334H0z"/>
        <path id="s8emt6f5lg" d="M0 0h24.114v27.787H0z"/>
    </defs>
    <g fill="none" fill-rule="evenodd">
        <path d="M60.85 24.746c-.03 1.343.12 2.656.605 3.908.273.702.637 1.282 1.213 1.74.272.184.575.275.909.214.666-.122 1.242-.458 1.818-.794 1.455-.916 2.637-2.137 3.758-3.45 2.394-2.809 4.272-5.953 5.545-9.434 1.09-2.961 1.576-6.014 1.121-9.19-.182-1.22-.515-2.381-1.06-3.45-.455-.885-1.122-1.465-2.091-1.71-.97-.243-1.94-.396-2.94-.335-1.06.03-2.09.152-3.12.397-3.516.824-6.577 2.442-9.213 4.946a8.953 8.953 0 0 0-2.303 3.755 4.395 4.395 0 0 0-.121 2.26c.272 1.373 1.09 2.38 2.151 3.175.152.122.273.213.424.274.122.092.213.061.273-.091.03-.061.03-.123.06-.183.698-2.23 1.698-4.305 2.91-6.29C61.97 8.503 63.425 6.733 65 5.023c.333-.366.697-.55 1.182-.641.97-.183 1.879-.153 2.727.397.212.153.394.275.546.488.363.458.363.855-.03 1.283-.516.55-1 1.13-1.546 1.679-2.121 2.26-3.788 4.824-5.06 7.663a22.833 22.833 0 0 0-1.97 8.854m-4-.946c.03-1.649.212-3.237.515-4.855.121-.702.09-.55-.455-.763-1.394-.61-2.667-1.466-3.667-2.656-.97-1.13-1.363-2.473-1.211-3.97.151-1.556.878-2.87 1.757-4.12 1.424-2.016 3.333-3.481 5.394-4.764 2.394-1.435 5-2.259 7.758-2.564 1.878-.244 3.72-.066 5.545.458 3.98 1.142 7.377 5.054 7.788 9.037.282 2.74.06 5.373-.94 7.938-1.363 3.633-3.364 6.87-5.909 9.77-1.394 1.618-3 2.992-4.909 3.938-1.394.672-2.818 1.1-4.333 1.13-1.667.03-3.212-.275-4.637-1.19-.787-.52-1.333-1.253-1.727-2.108a11.366 11.366 0 0 1-.909-3.755c-.03-.519-.06-1.007-.06-1.526M97.797 9.37c.06-.691.152-1.142.244-1.623.092-.511-.03-.09.091-.6.244-1.113.702-2.135 1.526-2.947.244-.27.549-.39.915-.39.824.03 1.526.27 2.075.871.275.27.366.572.214.932-.397.932-.61.901-1.281 1.683a8.875 8.875 0 0 0-1.343 2.164c-.061.15-.122.301-.092.481.061.27-.091.421-.336.511-.518.21-1.006-.03-1.434-.27-.396-.21-.61-.541-.58-.812M95.63 24.1c.245-.15.397-.36.52-.54 1.098-1.293 2.074-2.676 3.08-4.059a66.955 66.955 0 0 0 2.808-4.178c.183-.27.397-.391.702-.361.336.06.427.21.305.51-.214.422-.427.813-.671 1.234-.946 1.683-2.045 3.306-3.113 4.93-.58.872-1.098 1.743-1.739 2.585-.244.3-.519.601-.824.872-.763.691-1.922.812-2.898.33-.397-.18-.58-.51-.733-.871-.213-.632-.305-1.293-.366-1.954a11.867 11.867 0 0 1 .458-3.878c.671-2.315 1.556-4.54 2.93-6.524.06-.09.152-.18.182-.27.275-.482.702-.602 1.22-.572.733.03 1.343.3 1.862.752.275.24.366.54.244.902-.153.51-.366.962-.61 1.443-.794 1.713-1.618 3.397-2.289 5.17-.457 1.203-.915 2.436-1.098 3.728 0 .24-.03.481.03.752M118.614 9.37c.06-.691.153-1.142.244-1.623.092-.511-.03-.09.091-.6.245-1.113.702-2.135 1.526-2.947.244-.27.55-.39.915-.39.824.03 1.526.27 2.075.871.275.27.367.572.214.932-.397.932-.61.901-1.281 1.683a8.875 8.875 0 0 0-1.343 2.164c-.061.15-.122.301-.092.481.061.27-.091.421-.335.511-.519.21-1.007-.03-1.434-.27-.397-.21-.61-.541-.58-.812m-2.166 14.73c.244-.15.396-.36.518-.54 1.099-1.293 2.075-2.676 3.082-4.059a66.955 66.955 0 0 0 2.807-4.178c.183-.27.397-.391.702-.361.336.06.427.21.305.51-.213.422-.427.813-.671 1.234-.946 1.683-2.045 3.306-3.112 4.93-.58.872-1.099 1.743-1.74 2.585-.244.3-.518.601-.823.872-.763.691-1.923.812-2.9.33-.396-.18-.579-.51-.732-.871-.213-.632-.304-1.293-.366-1.954a11.867 11.867 0 0 1 .458-3.878c.671-2.315 1.556-4.54 2.93-6.524.06-.09.152-.18.182-.27.275-.482.702-.602 1.22-.572.733.03 1.343.3 1.862.752.275.24.366.54.244.902-.152.51-.366.962-.61 1.443-.793 1.713-1.617 3.397-2.288 5.17-.458 1.203-.916 2.436-1.099 3.728 0 .24-.03.481.03.752" fill="#612D0F"/>
        <path d="M103.455 22.842c.347-.427.725-.853 1.071-1.279 1.607-2.009 3.057-4.11 4.57-6.21a.9.9 0 0 0 .157-.486c-.063-.609-.157-1.218-.41-1.766-.41-.852-.567-.882-1.323-.334-.788.547-1.355 1.248-1.89 2.008-1.135 1.522-1.734 3.288-2.08 5.114-.158.974-.221 1.948-.095 2.953m-5.041 6.118a7.674 7.674 0 0 1-.032-1.34c.032-.304.22-.456.504-.517.221-.061.41-.061.6-.03.503.121.692.273.66.76-.125 1.736.635 3.38 2.15 3.38 1.009 0 1.766-.782 2.42-2.07.85-1.553 1.449-3.227 1.985-4.932.283-.913.535-1.856.819-2.77-.032-.03-.063-.03-.063-.06-.22.365-.41.7-.63 1.065-.41.73-.883 1.4-1.481 1.948-.662.639-1.45.883-2.364.822a4.52 4.52 0 0 1-1.512-.335c-.473-.183-.82-.518-1.072-.944-.283-.548-.41-1.126-.472-1.704-.158-2.435.315-4.78 1.45-6.94.724-1.4 1.638-2.648 2.898-3.653 1.576-1.278 4.097-1.308 5.83.183l.158.152c.157.183.283.122.346-.06.158-.275.284-.518.41-.762.095-.182.189-.334.315-.456.126-.183.284-.244.536-.213a3.327 3.327 0 0 1 2.3 1.309c.284.365.347.76.22 1.217a45.676 45.676 0 0 1-1.26 4.505c-.535 1.491-1.04 2.983-1.575 4.474-.599 1.705-2.193 5.517-3.455 7.467-1.261 1.95-3.028 2.925-5.551 2.925-2.271 0-3.934-1.472-4.134-3.421" fill="#612D0F"/>
        <g transform="translate(122.022 10.476)">
            <mask id="hxsbta4bmb" fill="#fff">
                <use xlink:href="#eh1upwtd5a"/>
            </mask>
            <path d="M5.409 6.708c.427-.612.823-1.223 1.28-1.835C7.817 3.313 9.16 1.937 10.56.622c.884-.826 2.134-.734 2.957-.276.854.429 1.189 1.163 1.097 2.111a6.87 6.87 0 0 1-.488 1.927l-1.463 3.578a20.272 20.272 0 0 0-1.219 4.006c0 .123-.03.215-.03.337 0 .03 0 .061.091.122.214-.336.458-.642.701-.979a767.104 767.104 0 0 1 4.328-6.208c.122-.153.244-.336.397-.49.213-.244.61-.305.853-.152.183.061.244.183.153.367-.03.092-.092.183-.153.275a386.194 386.194 0 0 0-4.054 7.065 13.72 13.72 0 0 1-1.219 1.743c-.792.948-1.768 1.162-2.926.887-.61-.153-.976-.55-1.128-1.162-.244-.856-.213-1.744-.122-2.6.153-1.62.701-3.12 1.28-4.618.336-.887.67-1.743 1.006-2.6.03-.091.092-.152.061-.275-.091-.03-.122.062-.183.092-2.103 2.14-3.78 4.588-5.182 7.218-.579 1.1-1.097 2.202-1.706 3.272-.457.795-1.067 1.07-2.043.948C.41 15.027.136 14.752.014 13.467c-.061-1.162.091-2.294.274-3.425.427-2.57 1.158-5.016 2.408-7.31.336-.642.762-1.254 1.189-1.835.366-.52.853-.642 1.402-.612A3 3 0 0 1 7.086.99c.335.275.457.612.304 1.04-.183.55-.426 1.04-.64 1.56-.427.887-.823 1.773-1.219 2.66-.061.123-.122.275-.183.398l.06.06" fill="#612D0F" mask="url(#hxsbta4bmb)"/>
        </g>
        <path d="M93.375 14.42c-.243-.253-.429-.517-.502-.865a3.302 3.302 0 0 1-.045-1.024c.045-.43.101-.859.126-1.29.046-.826-.269-1.336-.958-1.564-.516-.17-1.047-.17-1.581-.135-.12.008-.16.078-.201.175-.328.763-.777 1.448-1.256 2.114-.835 1.16-1.765 2.247-2.452 3.519a2.12 2.12 0 0 1-.45.574c-.043-.176.028-.306.077-.433.23-.596.475-1.185.7-1.782.165-.439.239-.895.163-1.368-.022-.134-.048-.257-.196-.312-.52-.195-1.042-.386-1.6-.426-.623-.045-.892.126-1.154.711a67.826 67.826 0 0 0-1.81 4.393c-.601 1.644-1.228 3.28-1.64 4.99-.194.811-.306 1.64-.095 2.467.25.974.943 1.39 1.844 1.534.762.121 1.088-.452 1.456-.967.006-.009.009-.02.014-.03.42-.732.835-1.466 1.26-2.195 1.277-2.197 2.441-4.466 3.822-6.598.517-.798 1.022-1.606 1.63-2.337.204.138.321.34.43.54.479.886 1.228 1.294 2.179 1.312.333.006.498-.14.498-.406a.896.896 0 0 0-.259-.598M74.21 40c-.298 0-.447-.165-.447-.494v-3.754c0-.167.038-.294.115-.382a.387.387 0 0 1 .307-.132c.107 0 .192.023.254.07.062.045.132.12.21.226l2.008 2.72v-2.529c0-.325.148-.487.445-.487.298 0 .446.162.446.487v3.8c0 .146-.035.26-.105.347a.35.35 0 0 1-.285.128.467.467 0 0 1-.276-.073 1.045 1.045 0 0 1-.22-.23l-2.007-2.72v2.529c0 .33-.148.494-.446.494M82.289 40c-.62 0-1.092-.168-1.415-.506-.325-.337-.487-.838-.487-1.504v-2.233c0-.166.041-.294.124-.384.083-.09.202-.135.36-.135.317 0 .476.173.476.519v2.24c0 .376.08.66.242.85.16.19.394.286.7.286.623 0 .935-.379.935-1.136v-2.24c0-.346.16-.519.477-.519.153 0 .27.045.35.135.08.09.121.218.121.384v2.233c0 .666-.159 1.167-.477 1.504-.318.338-.787.506-1.406.506M88.906 40c-.15 0-.264-.047-.343-.14-.08-.093-.119-.224-.119-.394v-3.374h-1.048c-.257 0-.385-.143-.385-.427 0-.285.128-.427.385-.427h3.015c.256 0 .385.142.385.427 0 .284-.129.427-.385.427h-1.049v3.374c0 .17-.038.3-.115.394-.077.093-.19.14-.34.14M94.657 37.372h.916c.55 0 .824-.222.824-.667 0-.44-.274-.66-.824-.66h-.916v1.327zM94.149 40c-.167 0-.295-.047-.383-.14-.088-.093-.132-.224-.132-.394v-3.701c0-.351.174-.527.521-.527h1.603c.518 0 .919.127 1.2.38.281.254.422.607.422 1.06 0 .352-.089.644-.267.878-.178.233-.432.392-.762.477.233.07.424.242.574.513l.409.767c.092.169.11.326.053.47-.058.145-.196.217-.416.217a.627.627 0 0 1-.356-.093.743.743 0 0 1-.237-.287l-.633-1.18a.545.545 0 0 0-.244-.254.814.814 0 0 0-.343-.067h-.501v1.347c0 .17-.043.3-.129.394-.086.093-.212.14-.38.14zM100.734 40c-.155 0-.273-.046-.354-.138-.081-.093-.122-.222-.122-.389v-3.708c0-.351.159-.527.476-.527.314 0 .47.176.47.527v3.708c0 .352-.156.527-.47.527M104.992 40c-.15 0-.264-.047-.343-.14-.08-.093-.119-.224-.119-.394v-3.374h-1.048c-.257 0-.385-.143-.385-.427 0-.285.128-.427.385-.427h3.015c.256 0 .385.142.385.427 0 .284-.129.427-.385.427h-1.049v3.374c0 .17-.038.3-.115.394-.077.093-.19.14-.34.14M110.197 40c-.155 0-.273-.046-.354-.138-.082-.093-.123-.222-.123-.389v-3.708c0-.351.16-.527.477-.527.313 0 .47.176.47.527v3.708c0 .352-.157.527-.47.527M115.867 39.135c.399 0 .71-.134.934-.403.224-.268.336-.64.336-1.116 0-.48-.11-.853-.333-1.117-.222-.264-.534-.396-.937-.396-.393 0-.702.132-.926.396-.224.264-.336.636-.336 1.117 0 .476.112.848.336 1.116.224.27.533.403.926.403m0 .865c-.47 0-.883-.1-1.238-.298a2.098 2.098 0 0 1-.828-.832c-.197-.356-.296-.774-.296-1.254s.099-.899.296-1.255c.196-.356.471-.632.824-.828.353-.197.767-.295 1.242-.295.476 0 .89.098 1.246.295.356.196.631.472.829.828.196.356.295.772.295 1.248 0 .48-.099.9-.295 1.258a2.098 2.098 0 0 1-.829.835c-.355.199-.77.298-1.246.298M121.521 40c-.297 0-.446-.165-.446-.494v-3.754c0-.167.038-.294.115-.382a.387.387 0 0 1 .307-.132c.107 0 .192.023.253.07.062.045.133.12.211.226l2.007 2.72v-2.529c0-.325.149-.487.446-.487.298 0 .446.162.446.487v3.8c0 .146-.035.26-.105.347a.35.35 0 0 1-.285.128.467.467 0 0 1-.276-.073 1.045 1.045 0 0 1-.22-.23l-2.007-2.72v2.529c0 .33-.148.494-.446.494" fill="#612D0F"/>
        <g>
            <path d="M37.38 27.91c-2.73-1.392-4.76.006-6.549 1.24-.153.104-.304.209-.455.31a4.696 4.696 0 0 1-5.211 0l-1.3-.877c-2.334-1.577-5.47-1.577-7.804 0l-1.295.875c-1.56 1.053-3.647 1.06-5.195.017-.17-.115-.34-.232-.509-.349-1.742-1.205-3.545-2.45-6.369-1.323-.566.227-.866.834-.682 1.382.099.294.32.536.608.664.287.13.62.134.911.016 1.679-.682 2.68.01 4.197 1.056.17.118.346.239.527.361 2.334 1.577 5.47 1.577 7.803 0l1.3-.878a4.696 4.696 0 0 1 5.212 0l.414.283c1.329.915 2.583 1.778 4.787 1.778 2.19 0 3.654-.998 4.83-1.8 1.313-.895 2.261-1.542 3.736-.786.301.155.655.17.971.041.315-.13.552-.389.651-.712.153-.503-.09-1.049-.577-1.298" fill="#612D0F"/>
            <path d="M34.276 32.83a1.165 1.165 0 0 0-1.467-.009c-.095.074-.192.157-.304.253-.713.608-2.036 1.745-4.62 1.672-1.696-.045-2.921-.684-4.106-1.302-2.011-1.048-3.91-2.039-7.484.06-.816.48-2.659 1.206-4.02 1.242-2.583.076-3.871-1.032-4.643-1.69a9.902 9.902 0 0 0-.298-.248 1.16 1.16 0 0 0-1.6.17 1.093 1.093 0 0 0 .174 1.557c.067.053.15.124.248.207.88.75 2.714 2.312 6.18 2.22 1.685-.045 3.903-.837 5.133-1.56 1.06-.622 1.889-.911 2.61-.911.722 0 1.551.29 2.61.912 1.231.723 3.449 1.514 5.134 1.559.102.002.203.004.302.004 3.081 0 4.662-1.264 5.826-2.194.102-.08.201-.16.298-.235.264-.206.419-.514.425-.844a1.1 1.1 0 0 0-.398-.863" fill="#612D0F"/>
            <g transform="translate(16.071 36.719)">
                <mask id="1xreaw3pxd" fill="#fff">
                    <use xlink:href="#u2kes19vjc"/>
                </mask>
                <path d="M7.3 1.262C6.055.42 4.97 0 3.889 0 2.816 0 1.744.413.518 1.239c-.503.338-.666.992-.371 1.488.16.268.428.46.737.528.31.067.637.004.898-.173 1.796-1.218 2.621-1.073 4.19-.02.498.335 1.18.257 1.55-.176A1.09 1.09 0 0 0 7.3 1.262" fill="#612D0F" mask="url(#1xreaw3pxd)"/>
            </g>
            <g transform="translate(0 .453)">
                <mask id="yuafvvog1f" fill="#fff">
                    <use xlink:href="#qwr0qb94qe"/>
                </mask>
                <path d="M7.07 25.27c.138.093.274.187.41.28 1.27.877 2.584 1.784 4.89 1.784 2.905 0 6.012-1.884 6.329-5.492.001-.025.004-.33.004-2.971 0-2.666-1.748-5.097-3.439-6.748a38.789 38.789 0 0 1-1.33-1.342 76.617 76.617 0 0 0-.513-4.197c.125-.171.398-.573 1.125-1.643l2.167-3.187c.336-.493.242-1.156-.215-1.51a1.162 1.162 0 0 0-.887-.23 1.143 1.143 0 0 0-.772.482l-1.91 2.808a57.948 57.948 0 0 1-.145-1.094c-.072-.587-.593-1.04-1.165-1.018-.32.009-.622.148-.83.383a1.091 1.091 0 0 0-.27.854c.125 1.03.275 2.005.434 3.04.155 1.003.313 2.033.46 3.187a245.83 245.83 0 0 1-.67-.553c-1.046-.866-1.872-1.551-3.642-2.865-.483-.36-1.168-.31-1.562.11-.214.23-.32.54-.292.848.03.309.19.593.444.781.53.394.995.745 1.426 1.078l-2.483-.131a1.15 1.15 0 0 0-.858.313 1.099 1.099 0 0 0-.343.834c.02.567.51 1.036 1.115 1.068l5.494.29c.658.54 1.28 1.042 1.998 1.612.475.53 1.038 1.081 1.582 1.615.678.664 1.37 1.342 1.896 1.98-.85-.45-1.835-.746-2.966-.898-1.06-1.562-2.457-2.768-2.518-2.82a1.16 1.16 0 0 0-1.605.101 1.09 1.09 0 0 0 .103 1.564c.063.055.523.458 1.07 1.057-.58.033-1.052.088-1.346.128-.43-.35-1.85-1.5-2.99-2.423l-1.563-1.266a1.16 1.16 0 0 0-1.662.222c-.333.467-.228 1.129.238 1.507l2.228 1.804H1.408c-.606 0-1.12.444-1.171 1.01-.028.31.079.619.294.847.215.229.52.36.838.36h3.149L.526 19.303a1.093 1.093 0 0 0-.349 1.53 1.157 1.157 0 0 0 1.57.34L8.53 16.97c.548-.076 1.992-.235 3.481-.067a74.867 74.867 0 0 0-2.64 2.696 1.087 1.087 0 0 0 .082 1.565c.226.199.517.3.821.284.303-.015.582-.144.786-.364.02-.022 2.012-2.167 3.457-3.447 1.928 1.081 1.92 2.626 1.913 3.877v.186c-.155 2.439-2.497 3.169-2.764 3.244-1.344.379-2.876.142-3.999-.616l-1.3-.878c-2.016-1.363-4.925-1.502-7.236-.347-.548.274-.795.904-.563 1.436.125.285.367.507.664.611.298.104.63.082.909-.06 1.567-.796 3.595-.72 4.93.181" fill="#612D0F" mask="url(#yuafvvog1f)"/>
            </g>
            <g transform="translate(15.886)">
                <mask id="0x6v5n1ouh" fill="#fff">
                    <use xlink:href="#s8emt6f5lg"/>
                </mask>
                <path d="M22.206 19.35a1.16 1.16 0 0 0 1.607-.062 1.09 1.09 0 0 0-.064-1.566c-1.215-1.097-2.483-2.16-4.46-3.072l1.758-.31c.597-.104 1.022-.63.969-1.196a1.108 1.108 0 0 0-.445-.782 1.16 1.16 0 0 0-.891-.21l-3.928.691c-1.789.315-2.209.389-2.34.42a8.912 8.912 0 0 0-.375-.02c.777-.761 1.501-1.465 2.141-2.085.162.003.483.004 1.18.006l2.455.007c.627 0 1.138-.495 1.14-1.104.001-.296-.116-.575-.33-.785-.214-.21-.5-.327-.803-.328l-1.343-.004c.528-.505.835-.794.85-.808a1.087 1.087 0 0 0 .026-1.567 1.166 1.166 0 0 0-1.628-.006c-.134.126-.934.883-2.155 2.057l.038-.346c.12-1.098.234-2.134.46-3.73a1.08 1.08 0 0 0-.218-.821 1.137 1.137 0 0 0-.75-.43 1.13 1.13 0 0 0-1.284.945 106.237 106.237 0 0 0-.473 3.832c-.1.905-.2 1.84-.364 3.061-.522.51-1.073 1.05-1.647 1.616l-.275-3.342a1.093 1.093 0 0 0-.39-.762 1.148 1.148 0 0 0-.823-.266c-.626.042-1.1.573-1.055 1.183l.26 3.167c.082 1.143.12 1.668.14 1.922a9.044 9.044 0 0 0-1.523 1.3c-.329-.816-2.426-3.566-3.136-4.394l.607-1.395c2.727-2.239 5.518-4.672 6.68-5.654a1.1 1.1 0 0 0 .39-.807 1.098 1.098 0 0 0-.347-.827c-.418-.395-1.104-.402-1.563-.016-.945.8-1.44 1.292-3.182 2.75l1.677-3.858c.118-.272.12-.574.007-.848A1.15 1.15 0 0 0 6.697.89L5.469 3.717 5.28 2.546c-.084-.522-.167-1.036-.248-1.563A1.158 1.158 0 0 0 3.835.002 1.15 1.15 0 0 0 3.02.41a1.09 1.09 0 0 0-.242.862c.083.54.168 1.068.254 1.601.233 1.44.474 2.929.697 4.849l-.841 1.937-.403-.458-.217-2.518C2.19 6.077 1.618 5.643 1 5.715.38 5.79-.067 6.342.008 6.948l.287 3.073.032.135.06.066c1.85 2.094 2.966 3.702 3.954 4.875.288.343.54.641.756.895.255.3 1.07 1.49.827 4.187-.044.51-.051 1.2-.02 1.893.163 3.675 3.07 5.236 3.839 5.453a7.096 7.096 0 0 0 1.927.262c2.3 0 3.62-.91 4.897-1.788.133-.092.267-.184.402-.275 1.549-1.046 3.407-1.04 4.972.018.26.175.586.238.895.17a1.14 1.14 0 0 0 .737-.525c.298-.498.135-1.154-.372-1.491-2.333-1.557-5.218-1.554-7.528.006l-1.3.878c-1.122.758-2.654.995-3.973.624-.021-.008-2.108-.82-2.224-3.428-.144-3.234.674-4.18 1.758-5.082 1.03-.856 2.119-1.322 3.333-1.42l3.001 4.573c.21.32.568.511.96.511.414 0 .795-.221.996-.577a1.07 1.07 0 0 0-.04-1.129l-1.96-2.986c2.922.872 4.499 2.145 5.982 3.484z" fill="#612D0F" mask="url(#0x6v5n1ouh)"/>
            </g>
        </g>
    </g>
</svg>
